<svg xmlns="http://www.w3.org/2000/svg" version="1.1" xmlns:xlink="http://www.w3.org/1999/xlink" width="129.4" height="130"><svg xmlns="http://www.w3.org/2000/svg" version="1.1" xmlns:xlink="http://www.w3.org/1999/xlink" width="129.4" height="130"><svg id="Laag_1" xmlns="http://www.w3.org/2000/svg" version="1.1" viewBox="0 0 129.4 130">
  <!-- Generator: Adobe Illustrator 30.1.0, SVG Export Plug-In . SVG Version: 2.1.1 Build 136)  -->
  <defs>
    <style>
      .st0 {
        fill: #fff;
      }

      .st1 {
        fill: #ffd42f;
      }
    </style>
  </defs>
  <path class="st1" d="M65.1,128.4c34.8,0,63.1-28.2,63.1-63.1S99.9,2.2,65.1,2.2,1.9,30.5,1.9,65.3s28.2,63.1,63.1,63.1Z"></path>
  <path class="st0" d="M44.3,87.4c-7.7-8.9-.6-16.8,4.4-20.9,6.4,6.6,13.8,13.2,20.5,18.7-5.9,5-12.2,6.5-17.4,5.6-3.1-.5-5.8-1.8-7.6-3.5ZM94,91.4c-1-.7-5.3-3.7-11-8.2,4.1-6.5,7.3-14.6,9.6-25,2.9-.4,4.9-1,5.9-1.3h.6c0-.1.1-7.4.1-7.8h-.2c-6.5-.2-16.4,0-24.2,1.6v5.9l.5.2h.2c2.2,1,4.7,1.6,7.3,1.8-1.7,7.9-4.2,14-7.1,18.7-12-9.7-26-22.3-29.9-30.6-2-4.6,1.6-9,5.9-9.2,1.7-.1,3.1.1,4.2.7,1.9,1.2,2.8,3.2,2.8,5.6s-1.3,5.6-3.8,8.3l4.7,4.4h.2c2.9-2.2,7.8-8.6,7.8-13.9s-2.3-8.6-6.2-10.8c-2.3-1.3-5.2-2-8.5-2.2-11.2,0-17.6,6.8-17.4,14.9,0,4.1,4,10.6,8.4,16.2-3.1,2.6-10,7.4-12,14.3-2.3,7.4-.7,16.4,10.1,22.2,3.5,1.8,7.2,2.8,11,2.9,8.5.5,17.5-2.8,23.9-9,5.2,4.1,9,6.8,10,7.6h13.2v-6.2c-1-.2-1.9-.5-3-.6-1-.2-1.9-.4-2.9-.5Z"></path>
</svg></svg><style>@media (prefers-color-scheme: light) { :root { filter: none; } }
@media (prefers-color-scheme: dark) { :root { filter: none; } }
</style></svg>